<mxfile host="app.diagrams.net" agent="Mozilla/5.0 (Windows NT 10.0; Win64; x64) AppleWebKit/537.36 (KHTML, like Gecko) Chrome/136.0.0.0 Safari/537.36 Edg/136.0.0.0" version="27.0.6">
  <diagram name="Страница — 1" id="W-qpRfI341xdE_xABqby">
    <mxGraphModel dx="1721" dy="1104" grid="1" gridSize="10" guides="1" tooltips="1" connect="1" arrows="1" fold="1" page="1" pageScale="1" pageWidth="827" pageHeight="1169" math="0" shadow="0">
      <root>
        <mxCell id="0" />
        <mxCell id="1" parent="0" />
        <mxCell id="6VjNTTTDaONBWVVvT_2z-1" value="Пользователь" style="whiteSpace=wrap;html=1;align=center;" vertex="1" parent="1">
          <mxGeometry x="405" y="470" width="100" height="40" as="geometry" />
        </mxCell>
        <mxCell id="6VjNTTTDaONBWVVvT_2z-2" value="Логин, пароль, E-Mail" style="whiteSpace=wrap;html=1;align=center;" vertex="1" parent="1">
          <mxGeometry x="380" y="230" width="150" height="40" as="geometry" />
        </mxCell>
        <mxCell id="6VjNTTTDaONBWVVvT_2z-10" style="rounded=0;orthogonalLoop=1;jettySize=auto;html=1;entryX=0;entryY=0.5;entryDx=0;entryDy=0;endArrow=ERmandOne;endFill=0;" edge="1" parent="1" source="6VjNTTTDaONBWVVvT_2z-5" target="6VjNTTTDaONBWVVvT_2z-9">
          <mxGeometry relative="1" as="geometry" />
        </mxCell>
        <mxCell id="6VjNTTTDaONBWVVvT_2z-5" value="Имеет" style="shape=rhombus;perimeter=rhombusPerimeter;whiteSpace=wrap;html=1;align=center;" vertex="1" parent="1">
          <mxGeometry x="395" y="350" width="120" height="60" as="geometry" />
        </mxCell>
        <mxCell id="6VjNTTTDaONBWVVvT_2z-7" value="" style="fontSize=12;html=1;endArrow=ERmandOne;rounded=0;entryX=0.5;entryY=0;entryDx=0;entryDy=0;exitX=0.5;exitY=1;exitDx=0;exitDy=0;" edge="1" parent="1" source="6VjNTTTDaONBWVVvT_2z-5" target="6VjNTTTDaONBWVVvT_2z-1">
          <mxGeometry width="100" height="100" relative="1" as="geometry">
            <mxPoint x="461" y="400" as="sourcePoint" />
            <mxPoint x="455.5" y="470" as="targetPoint" />
          </mxGeometry>
        </mxCell>
        <mxCell id="6VjNTTTDaONBWVVvT_2z-8" value="" style="fontSize=12;html=1;endArrow=ERmandOne;rounded=0;exitX=0.5;exitY=0;exitDx=0;exitDy=0;entryX=0.5;entryY=1;entryDx=0;entryDy=0;" edge="1" parent="1" source="6VjNTTTDaONBWVVvT_2z-5" target="6VjNTTTDaONBWVVvT_2z-2">
          <mxGeometry width="100" height="100" relative="1" as="geometry">
            <mxPoint x="361" y="370" as="sourcePoint" />
            <mxPoint x="361.5" y="440" as="targetPoint" />
          </mxGeometry>
        </mxCell>
        <mxCell id="6VjNTTTDaONBWVVvT_2z-9" value="Профиль" style="whiteSpace=wrap;html=1;align=center;" vertex="1" parent="1">
          <mxGeometry x="591" y="360" width="100" height="40" as="geometry" />
        </mxCell>
        <mxCell id="6VjNTTTDaONBWVVvT_2z-18" style="edgeStyle=orthogonalEdgeStyle;rounded=0;orthogonalLoop=1;jettySize=auto;html=1;exitX=1;exitY=0.5;exitDx=0;exitDy=0;entryX=0.5;entryY=1;entryDx=0;entryDy=0;endArrow=ERzeroToOne;endFill=0;" edge="1" parent="1" source="6VjNTTTDaONBWVVvT_2z-11" target="6VjNTTTDaONBWVVvT_2z-15">
          <mxGeometry relative="1" as="geometry" />
        </mxCell>
        <mxCell id="6VjNTTTDaONBWVVvT_2z-11" value="Содержит" style="shape=rhombus;perimeter=rhombusPerimeter;whiteSpace=wrap;html=1;align=center;" vertex="1" parent="1">
          <mxGeometry x="780" y="350" width="120" height="60" as="geometry" />
        </mxCell>
        <mxCell id="6VjNTTTDaONBWVVvT_2z-13" style="rounded=0;orthogonalLoop=1;jettySize=auto;html=1;entryX=1;entryY=0.5;entryDx=0;entryDy=0;endArrow=ERmandOne;endFill=0;exitX=0;exitY=0.5;exitDx=0;exitDy=0;" edge="1" parent="1" source="6VjNTTTDaONBWVVvT_2z-11" target="6VjNTTTDaONBWVVvT_2z-9">
          <mxGeometry relative="1" as="geometry">
            <mxPoint x="591" y="300" as="sourcePoint" />
            <mxPoint x="667" y="300" as="targetPoint" />
          </mxGeometry>
        </mxCell>
        <mxCell id="6VjNTTTDaONBWVVvT_2z-14" value="Имя пользователя" style="rounded=0;whiteSpace=wrap;html=1;" vertex="1" parent="1">
          <mxGeometry x="780" y="230" width="120" height="40" as="geometry" />
        </mxCell>
        <mxCell id="6VjNTTTDaONBWVVvT_2z-15" value="Описание" style="rounded=0;whiteSpace=wrap;html=1;" vertex="1" parent="1">
          <mxGeometry x="930" y="230" width="120" height="40" as="geometry" />
        </mxCell>
        <mxCell id="6VjNTTTDaONBWVVvT_2z-16" value="Аватар" style="rounded=0;whiteSpace=wrap;html=1;" vertex="1" parent="1">
          <mxGeometry x="1070" y="230" width="120" height="40" as="geometry" />
        </mxCell>
        <mxCell id="6VjNTTTDaONBWVVvT_2z-17" style="rounded=0;orthogonalLoop=1;jettySize=auto;html=1;entryX=0.5;entryY=1;entryDx=0;entryDy=0;endArrow=ERmandOne;endFill=0;exitX=0.5;exitY=0;exitDx=0;exitDy=0;" edge="1" parent="1" source="6VjNTTTDaONBWVVvT_2z-11" target="6VjNTTTDaONBWVVvT_2z-14">
          <mxGeometry relative="1" as="geometry">
            <mxPoint x="989" y="330" as="sourcePoint" />
            <mxPoint x="900" y="330" as="targetPoint" />
          </mxGeometry>
        </mxCell>
        <mxCell id="6VjNTTTDaONBWVVvT_2z-19" style="edgeStyle=orthogonalEdgeStyle;rounded=0;orthogonalLoop=1;jettySize=auto;html=1;entryX=0.5;entryY=1;entryDx=0;entryDy=0;endArrow=ERzeroToOne;endFill=0;exitX=1;exitY=0.5;exitDx=0;exitDy=0;" edge="1" parent="1" source="6VjNTTTDaONBWVVvT_2z-11" target="6VjNTTTDaONBWVVvT_2z-16">
          <mxGeometry relative="1" as="geometry">
            <mxPoint x="1030" y="380" as="sourcePoint" />
            <mxPoint x="1170" y="320" as="targetPoint" />
          </mxGeometry>
        </mxCell>
        <mxCell id="6VjNTTTDaONBWVVvT_2z-20" value="Публикаций" style="whiteSpace=wrap;html=1;align=center;" vertex="1" parent="1">
          <mxGeometry x="405" y="760.5" width="100" height="40" as="geometry" />
        </mxCell>
        <mxCell id="6VjNTTTDaONBWVVvT_2z-21" value="Фотографию" style="whiteSpace=wrap;html=1;align=center;" vertex="1" parent="1">
          <mxGeometry x="405" y="925.5" width="100" height="40" as="geometry" />
        </mxCell>
        <mxCell id="6VjNTTTDaONBWVVvT_2z-22" value="Уровень подписки" style="whiteSpace=wrap;html=1;align=center;" vertex="1" parent="1">
          <mxGeometry x="601" y="660.5" width="100" height="40" as="geometry" />
        </mxCell>
        <mxCell id="6VjNTTTDaONBWVVvT_2z-23" value="Сообщение" style="whiteSpace=wrap;html=1;align=center;" vertex="1" parent="1">
          <mxGeometry x="20" y="470" width="100" height="40" as="geometry" />
        </mxCell>
        <mxCell id="6VjNTTTDaONBWVVvT_2z-24" value="Виды работ" style="whiteSpace=wrap;html=1;align=center;" vertex="1" parent="1">
          <mxGeometry x="210" y="660.5" width="100" height="40" as="geometry" />
        </mxCell>
        <mxCell id="6VjNTTTDaONBWVVvT_2z-27" style="edgeStyle=orthogonalEdgeStyle;rounded=0;orthogonalLoop=1;jettySize=auto;html=1;entryX=0.5;entryY=1;entryDx=0;entryDy=0;endArrow=ERmandOne;endFill=0;" edge="1" parent="1" source="6VjNTTTDaONBWVVvT_2z-25" target="6VjNTTTDaONBWVVvT_2z-1">
          <mxGeometry relative="1" as="geometry" />
        </mxCell>
        <mxCell id="6VjNTTTDaONBWVVvT_2z-28" style="edgeStyle=orthogonalEdgeStyle;rounded=0;orthogonalLoop=1;jettySize=auto;html=1;entryX=0.5;entryY=0;entryDx=0;entryDy=0;endArrow=ERzeroToMany;endFill=0;" edge="1" parent="1" source="6VjNTTTDaONBWVVvT_2z-25" target="6VjNTTTDaONBWVVvT_2z-20">
          <mxGeometry relative="1" as="geometry" />
        </mxCell>
        <mxCell id="6VjNTTTDaONBWVVvT_2z-40" style="edgeStyle=orthogonalEdgeStyle;rounded=0;orthogonalLoop=1;jettySize=auto;html=1;exitX=1;exitY=0.5;exitDx=0;exitDy=0;entryX=0;entryY=0.5;entryDx=0;entryDy=0;endArrow=ERzeroToMany;endFill=0;" edge="1" parent="1" source="6VjNTTTDaONBWVVvT_2z-25" target="6VjNTTTDaONBWVVvT_2z-22">
          <mxGeometry relative="1" as="geometry" />
        </mxCell>
        <mxCell id="6VjNTTTDaONBWVVvT_2z-41" style="edgeStyle=orthogonalEdgeStyle;rounded=0;orthogonalLoop=1;jettySize=auto;html=1;entryX=1;entryY=0.5;entryDx=0;entryDy=0;endArrow=ERzeroToMany;endFill=0;" edge="1" parent="1" source="6VjNTTTDaONBWVVvT_2z-25" target="6VjNTTTDaONBWVVvT_2z-24">
          <mxGeometry relative="1" as="geometry" />
        </mxCell>
        <mxCell id="6VjNTTTDaONBWVVvT_2z-25" value="Создаёт" style="shape=rhombus;perimeter=rhombusPerimeter;whiteSpace=wrap;html=1;align=center;" vertex="1" parent="1">
          <mxGeometry x="395" y="650" width="120" height="60" as="geometry" />
        </mxCell>
        <mxCell id="6VjNTTTDaONBWVVvT_2z-30" style="edgeStyle=orthogonalEdgeStyle;rounded=0;orthogonalLoop=1;jettySize=auto;html=1;entryX=0.5;entryY=1;entryDx=0;entryDy=0;endArrow=ERmandOne;endFill=0;" edge="1" parent="1" source="6VjNTTTDaONBWVVvT_2z-29" target="6VjNTTTDaONBWVVvT_2z-20">
          <mxGeometry relative="1" as="geometry" />
        </mxCell>
        <mxCell id="6VjNTTTDaONBWVVvT_2z-31" style="edgeStyle=orthogonalEdgeStyle;rounded=0;orthogonalLoop=1;jettySize=auto;html=1;entryX=0.5;entryY=0;entryDx=0;entryDy=0;endArrow=ERmany;endFill=0;" edge="1" parent="1" source="6VjNTTTDaONBWVVvT_2z-29" target="6VjNTTTDaONBWVVvT_2z-21">
          <mxGeometry relative="1" as="geometry" />
        </mxCell>
        <mxCell id="6VjNTTTDaONBWVVvT_2z-29" value="Добавить" style="shape=rhombus;perimeter=rhombusPerimeter;whiteSpace=wrap;html=1;align=center;" vertex="1" parent="1">
          <mxGeometry x="395" y="835.5" width="120" height="60" as="geometry" />
        </mxCell>
        <mxCell id="6VjNTTTDaONBWVVvT_2z-37" style="edgeStyle=orthogonalEdgeStyle;rounded=0;orthogonalLoop=1;jettySize=auto;html=1;entryX=1;entryY=0.5;entryDx=0;entryDy=0;endArrow=ERmandOne;endFill=0;" edge="1" parent="1" source="6VjNTTTDaONBWVVvT_2z-35" target="6VjNTTTDaONBWVVvT_2z-20">
          <mxGeometry relative="1" as="geometry" />
        </mxCell>
        <mxCell id="6VjNTTTDaONBWVVvT_2z-38" style="edgeStyle=orthogonalEdgeStyle;rounded=0;orthogonalLoop=1;jettySize=auto;html=1;entryX=0.5;entryY=1;entryDx=0;entryDy=0;endArrow=ERzeroToOne;endFill=0;" edge="1" parent="1" source="6VjNTTTDaONBWVVvT_2z-35" target="6VjNTTTDaONBWVVvT_2z-22">
          <mxGeometry relative="1" as="geometry">
            <Array as="points">
              <mxPoint x="651" y="705.5" />
              <mxPoint x="651" y="705.5" />
            </Array>
          </mxGeometry>
        </mxCell>
        <mxCell id="6VjNTTTDaONBWVVvT_2z-35" value="Требовать" style="shape=rhombus;perimeter=rhombusPerimeter;whiteSpace=wrap;html=1;align=center;" vertex="1" parent="1">
          <mxGeometry x="591" y="750.5" width="120" height="60" as="geometry" />
        </mxCell>
        <mxCell id="6VjNTTTDaONBWVVvT_2z-44" style="edgeStyle=orthogonalEdgeStyle;rounded=0;orthogonalLoop=1;jettySize=auto;html=1;endArrow=ERmandOne;endFill=0;entryX=0;entryY=0.5;entryDx=0;entryDy=0;" edge="1" parent="1" source="6VjNTTTDaONBWVVvT_2z-42" target="6VjNTTTDaONBWVVvT_2z-1">
          <mxGeometry relative="1" as="geometry">
            <mxPoint x="400" y="490" as="targetPoint" />
          </mxGeometry>
        </mxCell>
        <mxCell id="6VjNTTTDaONBWVVvT_2z-47" style="edgeStyle=orthogonalEdgeStyle;rounded=0;orthogonalLoop=1;jettySize=auto;html=1;entryX=1;entryY=0.5;entryDx=0;entryDy=0;endArrow=ERzeroToMany;endFill=0;" edge="1" parent="1" source="6VjNTTTDaONBWVVvT_2z-42" target="6VjNTTTDaONBWVVvT_2z-23">
          <mxGeometry relative="1" as="geometry" />
        </mxCell>
        <mxCell id="6VjNTTTDaONBWVVvT_2z-42" value="Написать" style="shape=rhombus;perimeter=rhombusPerimeter;whiteSpace=wrap;html=1;align=center;" vertex="1" parent="1">
          <mxGeometry x="190" y="460" width="120" height="60" as="geometry" />
        </mxCell>
        <mxCell id="6VjNTTTDaONBWVVvT_2z-46" style="edgeStyle=orthogonalEdgeStyle;rounded=0;orthogonalLoop=1;jettySize=auto;html=1;entryX=0;entryY=0.5;entryDx=0;entryDy=0;endArrow=ERmandOne;endFill=0;" edge="1" parent="1" source="6VjNTTTDaONBWVVvT_2z-45" target="6VjNTTTDaONBWVVvT_2z-1">
          <mxGeometry relative="1" as="geometry" />
        </mxCell>
        <mxCell id="6VjNTTTDaONBWVVvT_2z-48" style="edgeStyle=orthogonalEdgeStyle;rounded=0;orthogonalLoop=1;jettySize=auto;html=1;entryX=1;entryY=0.5;entryDx=0;entryDy=0;endArrow=ERzeroToMany;endFill=0;" edge="1" parent="1" source="6VjNTTTDaONBWVVvT_2z-45" target="6VjNTTTDaONBWVVvT_2z-23">
          <mxGeometry relative="1" as="geometry" />
        </mxCell>
        <mxCell id="6VjNTTTDaONBWVVvT_2z-45" value="Прочитать" style="shape=rhombus;perimeter=rhombusPerimeter;whiteSpace=wrap;html=1;align=center;" vertex="1" parent="1">
          <mxGeometry x="190" y="550" width="120" height="60" as="geometry" />
        </mxCell>
        <mxCell id="6VjNTTTDaONBWVVvT_2z-51" style="edgeStyle=orthogonalEdgeStyle;rounded=0;orthogonalLoop=1;jettySize=auto;html=1;entryX=0;entryY=0.5;entryDx=0;entryDy=0;endArrow=ERzeroToOne;endFill=0;" edge="1" parent="1" source="6VjNTTTDaONBWVVvT_2z-50" target="6VjNTTTDaONBWVVvT_2z-24">
          <mxGeometry relative="1" as="geometry" />
        </mxCell>
        <mxCell id="6VjNTTTDaONBWVVvT_2z-53" style="edgeStyle=orthogonalEdgeStyle;rounded=0;orthogonalLoop=1;jettySize=auto;html=1;entryX=0.5;entryY=1;entryDx=0;entryDy=0;endArrow=ERmandOne;endFill=0;" edge="1" parent="1" source="6VjNTTTDaONBWVVvT_2z-50" target="6VjNTTTDaONBWVVvT_2z-23">
          <mxGeometry relative="1" as="geometry" />
        </mxCell>
        <mxCell id="6VjNTTTDaONBWVVvT_2z-50" value="Прикрепляет" style="shape=rhombus;perimeter=rhombusPerimeter;whiteSpace=wrap;html=1;align=center;" vertex="1" parent="1">
          <mxGeometry x="10" y="650" width="120" height="60" as="geometry" />
        </mxCell>
        <mxCell id="6VjNTTTDaONBWVVvT_2z-57" style="edgeStyle=orthogonalEdgeStyle;rounded=0;orthogonalLoop=1;jettySize=auto;html=1;entryX=0.5;entryY=0;entryDx=0;entryDy=0;endArrow=ERmandOne;endFill=0;" edge="1" parent="1" source="6VjNTTTDaONBWVVvT_2z-54" target="6VjNTTTDaONBWVVvT_2z-16">
          <mxGeometry relative="1" as="geometry" />
        </mxCell>
        <mxCell id="6VjNTTTDaONBWVVvT_2z-58" style="edgeStyle=orthogonalEdgeStyle;rounded=0;orthogonalLoop=1;jettySize=auto;html=1;entryX=0.5;entryY=1;entryDx=0;entryDy=0;endArrow=ERmandOne;endFill=0;" edge="1" parent="1" source="6VjNTTTDaONBWVVvT_2z-54" target="6VjNTTTDaONBWVVvT_2z-55">
          <mxGeometry relative="1" as="geometry" />
        </mxCell>
        <mxCell id="6VjNTTTDaONBWVVvT_2z-54" value="Содержит" style="shape=rhombus;perimeter=rhombusPerimeter;whiteSpace=wrap;html=1;align=center;" vertex="1" parent="1">
          <mxGeometry x="1070" y="130" width="120" height="60" as="geometry" />
        </mxCell>
        <mxCell id="6VjNTTTDaONBWVVvT_2z-55" value="Ссылку на изображение" style="rounded=0;whiteSpace=wrap;html=1;" vertex="1" parent="1">
          <mxGeometry x="1070" y="40" width="120" height="40" as="geometry" />
        </mxCell>
        <mxCell id="6VjNTTTDaONBWVVvT_2z-61" style="edgeStyle=orthogonalEdgeStyle;rounded=0;orthogonalLoop=1;jettySize=auto;html=1;entryX=1;entryY=0.5;entryDx=0;entryDy=0;endArrow=ERmandOne;endFill=0;" edge="1" parent="1" source="6VjNTTTDaONBWVVvT_2z-59" target="6VjNTTTDaONBWVVvT_2z-21">
          <mxGeometry relative="1" as="geometry" />
        </mxCell>
        <mxCell id="6VjNTTTDaONBWVVvT_2z-64" style="edgeStyle=orthogonalEdgeStyle;rounded=0;orthogonalLoop=1;jettySize=auto;html=1;entryX=0;entryY=0.5;entryDx=0;entryDy=0;endArrow=ERmandOne;endFill=0;" edge="1" parent="1" source="6VjNTTTDaONBWVVvT_2z-59" target="6VjNTTTDaONBWVVvT_2z-63">
          <mxGeometry relative="1" as="geometry" />
        </mxCell>
        <mxCell id="6VjNTTTDaONBWVVvT_2z-59" value="Содержит" style="shape=rhombus;perimeter=rhombusPerimeter;whiteSpace=wrap;html=1;align=center;" vertex="1" parent="1">
          <mxGeometry x="591" y="915.5" width="120" height="60" as="geometry" />
        </mxCell>
        <mxCell id="6VjNTTTDaONBWVVvT_2z-63" value="Ссылку на изображение" style="rounded=0;whiteSpace=wrap;html=1;" vertex="1" parent="1">
          <mxGeometry x="800" y="925.5" width="120" height="40" as="geometry" />
        </mxCell>
        <mxCell id="6VjNTTTDaONBWVVvT_2z-67" style="edgeStyle=orthogonalEdgeStyle;rounded=0;orthogonalLoop=1;jettySize=auto;html=1;entryX=0.5;entryY=0;entryDx=0;entryDy=0;endArrow=ERmandOne;endFill=0;" edge="1" parent="1" source="6VjNTTTDaONBWVVvT_2z-65" target="6VjNTTTDaONBWVVvT_2z-23">
          <mxGeometry relative="1" as="geometry" />
        </mxCell>
        <mxCell id="6VjNTTTDaONBWVVvT_2z-69" style="edgeStyle=orthogonalEdgeStyle;rounded=0;orthogonalLoop=1;jettySize=auto;html=1;entryX=0;entryY=0.5;entryDx=0;entryDy=0;endArrow=ERmandOne;endFill=0;" edge="1" parent="1" source="6VjNTTTDaONBWVVvT_2z-65" target="6VjNTTTDaONBWVVvT_2z-68">
          <mxGeometry relative="1" as="geometry" />
        </mxCell>
        <mxCell id="6VjNTTTDaONBWVVvT_2z-65" value="Содержит" style="shape=rhombus;perimeter=rhombusPerimeter;whiteSpace=wrap;html=1;align=center;" vertex="1" parent="1">
          <mxGeometry x="10" y="340" width="120" height="60" as="geometry" />
        </mxCell>
        <mxCell id="6VjNTTTDaONBWVVvT_2z-68" value="Текстовое Сообщение" style="whiteSpace=wrap;html=1;align=center;" vertex="1" parent="1">
          <mxGeometry x="190" y="350" width="100" height="40" as="geometry" />
        </mxCell>
      </root>
    </mxGraphModel>
  </diagram>
</mxfile>
